<svg width="1200" height="1600" viewBox="0 0 1200 1600" xmlns="http://www.w3.org/2000/svg">
    <rect width="1200" height="1600" fill="#121212" />
    
    <style>
        .label { font-family: sans-serif; font-size: 24px; fill: #888; text-anchor: middle; }
        .mono { font-family: 'Courier New', monospace; font-weight: bold; }
    </style>

    <!-- 1. THE NEON MONOGRAM -->
    <g transform="translate(100, 100)">
        <circle cx="100" cy="100" r="90" fill="none" stroke="#00FF41" stroke-width="8" />
        <text x="100" y="125" font-family="monospace" font-size="80" fill="#00FF41" text-anchor="middle" font-weight="bold">gt</text>
        <text x="100" y="230" class="label">1. Neon Monogram</text>
    </g>

    <!-- 2. THE BRACKET-BLOCK -->
    <g transform="translate(400, 100)">
        <rect x="20" y="40" width="160" height="120" rx="10" fill="#222" stroke="#61AFEF" stroke-width="4" />
        <text x="100" y="125" font-family="monospace" font-size="70" fill="#FFF" text-anchor="middle" font-weight="bold">[ gt ]</text>
        <text x="100" y="230" class="label">2. Bracket-Block</text>
    </g>

    <!-- 3. THE NEGATIVE SPACE -->
    <g transform="translate(700, 100)">
        <rect x="30" y="40" width="140" height="120" rx="20" fill="#00FF41" />
        <text x="100" y="125" font-family="monospace" font-size="80" fill="#121212" text-anchor="middle" font-weight="bold">gt</text>
        <text x="100" y="230" class="label">3. Negative Space</text>
    </g>

    <!-- 4. THE CRT MONITOR -->
    <g transform="translate(100, 400)">
        <rect x="20" y="40" width="160" height="120" rx="15" fill="#0a0a0a" stroke="#444" stroke-width="10" />
        <rect x="30" y="50" width="140" height="100" rx="10" fill="#051a05" />
        <text x="100" y="110" font-family="monospace" font-size="50" fill="#00FF41" text-anchor="middle" font-weight="bold">gt_</text>
        <line x1="30" y1="50" x2="170" y2="150" stroke="#00FF41" stroke-width="1" opacity="0.2" />
        <line x1="170" y1="50" x2="30" y2="150" stroke="#00FF41" stroke-width="1" opacity="0.2" />
        <text x="100" y="230" class="label">4. CRT Monitor</text>
    </g>

    <!-- 5. THE 8-BIT PIXEL -->
    <g transform="translate(400, 400)">
        <!-- Very simplified pixel art 'g' and 't' -->
        <rect x="40" y="50" width="20" height="20" fill="#00FF41" />
        <rect x="60" y="50" width="20" height="20" fill="#00FF41" />
        <rect x="40" y="70" width="20" height="20" fill="#00FF41" />
        <rect x="40" y="90" width="20" height="20" fill="#00FF41" />
        <rect x="60" y="90" width="40" height="20" fill="#00FF41" />
        <rect x="110" y="50" width="20" height="80" fill="#00FF41" />
        <rect x="90" y="70" width="40" height="20" fill="#00FF41" />
        <text x="100" y="230" class="label">5. 8-Bit Pixel</text>
    </g>

    <!-- 6. THE CASSETTE/FLOPPY -->
    <g transform="translate(700, 400)">
        <rect x="30" y="40" width="140" height="120" rx="5" fill="#333" stroke="#666" stroke-width="2" />
        <rect x="50" y="40" width="80" height="40" fill="#ddd" />
        <rect x="60" y="85" width="60" height="40" rx="2" fill="#222" />
        <text x="100" y="145" font-family="monospace" font-size="20" fill="#FFF" text-anchor="middle">gt-OS v1.0</text>
        <text x="100" y="230" class="label">6. Retro-Media</text>
    </g>

    <!-- 7. THE STACK-UP -->
    <g transform="translate(100, 700)">
        <text x="100" y="80" font-family="monospace" font-size="70" fill="#FFF" text-anchor="middle" font-weight="bold">t</text>
        <text x="100" y="140" font-family="monospace" font-size="70" fill="#00FF41" text-anchor="middle" font-weight="bold">g</text>
        <path d="M100,40 L100,20 M95,25 L100,20 L105,25" stroke="#61AFEF" stroke-width="4" fill="none" />
        <text x="100" y="230" class="label">7. The Stack-Up</text>
    </g>

    <!-- 8. THE GEOMETRIC FUSION -->
    <g transform="translate(400, 700)">
        <circle cx="100" cy="100" r="60" fill="none" stroke="#444" stroke-width="2" />
        <circle cx="100" cy="100" r="40" fill="none" stroke="#666" stroke-width="2" />
        <text x="100" y="120" font-family="monospace" font-size="60" fill="#FFF" text-anchor="middle" font-weight="bold">gt</text>
        <text x="100" y="230" class="label">8. Geometric Fusion</text>
    </g>

    <!-- 9. THE FORMULA-FLOW -->
    <g transform="translate(700, 700)">
        <text x="40" y="110" font-family="monospace" font-size="30" fill="#888" text-anchor="middle">+</text>
        <text x="70" y="130" font-family="monospace" font-size="30" fill="#888" text-anchor="middle">*</text>
        <text x="100" y="150" font-family="monospace" font-size="30" fill="#888" text-anchor="middle">**</text>
        <path d="M110,140 L150,120" stroke="#00FF41" stroke-width="3" fill="none" marker-end="url(#arrow)" />
        <text x="180" y="120" font-family="monospace" font-size="70" fill="#FFF" text-anchor="middle" font-weight="bold">gt</text>
        <text x="100" y="230" class="label">9. Formula-Flow</text>
    </g>

    <!-- 10. THE GLITCH-ART -->
    <g transform="translate(100, 1000)">
        <text x="100" y="120" font-family="monospace" font-size="80" fill="#FF00FF" text-anchor="middle" font-weight="bold" transform="translate(-3, -3)">gt</text>
        <text x="100" y="120" font-family="monospace" font-size="80" fill="#00FFFF" text-anchor="middle" font-weight="bold" transform="translate(3, 3)">gt</text>
        <text x="100" y="120" font-family="monospace" font-size="80" fill="#FFF" text-anchor="middle" font-weight="bold">gt</text>
        <text x="100" y="230" class="label">10. Glitch-Art</text>
    </g>
    
    <!-- 11. BONUS: Refined Pro Version -->
    <g transform="translate(400, 1000)">
        <rect x="40" y="40" width="120" height="120" rx="20" fill="#1A1A1A" stroke="#00FF41" stroke-width="4" />
        <text x="100" y="120" font-family="monospace" font-size="60" fill="#00FF41" text-anchor="middle" font-weight="bold">gt</text>
        <rect x="130" y="80" width="10" height="40" fill="#00FF41" opacity="0.5" />
        <rect x="145" y="90" width="10" height="20" fill="#00FF41" opacity="0.3" />
        <text x="100" y="230" class="label">11. Refined Pro</text>
    </g>
</svg>
